<svg width="23" height="29" viewBox="0 0 23 29" fill="none" xmlns="http://www.w3.org/2000/svg">
<path d="M14.4928 10C14.2126 10 13.9855 10.2999 13.9855 10.6699V23.3301C13.9855 23.6999 14.2126 24 14.4928 24C14.773 24 15 23.6999 15 23.3301V10.6699C15 10.2999 14.773 10 14.4928 10ZM8.50725 10C8.22709 10 8 10.2999 8 10.6699V23.3301C8 23.6999 8.22709 24 8.50725 24C8.78745 24 9.01449 23.6999 9.01449 23.3301V10.6699C9.01449 10.2999 8.78745 10 8.50725 10Z" fill="black"/>
<path d="M1.8728 8.38249V24.6288C1.8728 25.5891 2.22492 26.4908 2.84001 27.1378C3.14288 27.4588 3.50801 27.7147 3.9131 27.8899C4.31818 28.0651 4.75472 28.1558 5.19606 28.1566H17.6722C18.1136 28.1559 18.5501 28.0651 18.9552 27.89C19.3603 27.7148 19.7254 27.4589 20.0283 27.1378C20.6434 26.4908 20.9955 25.5891 20.9955 24.6288V8.38249C22.2182 8.05793 23.0106 6.87667 22.847 5.62203C22.6832 4.36758 21.6145 3.42925 20.3492 3.42898H16.9731V2.60473C16.975 2.2616 16.9087 1.92151 16.7781 1.60421C16.6475 1.2869 16.4552 0.998708 16.2122 0.756355C15.9693 0.514026 15.6806 0.322383 15.3629 0.192557C15.0453 0.0627302 14.705 -0.00269331 14.3618 8.54755e-05H8.50653C8.16336 -0.00270207 7.82307 0.0627172 7.5054 0.192544C7.18773 0.322371 6.89902 0.514018 6.65604 0.756355C6.41313 0.998708 6.22078 1.2869 6.09016 1.60421C5.95954 1.92151 5.89326 2.2616 5.89516 2.60473V3.42898H2.51915C1.25388 3.42925 0.185187 4.36758 0.0213255 5.62203C-0.142206 6.87667 0.650067 8.05793 1.8728 8.38249ZM17.6722 26.8378H5.19612C4.06868 26.8378 3.1916 25.8693 3.1916 24.6288V8.44045H19.6767V24.6288C19.6767 25.8693 18.7997 26.8378 17.6722 26.8378ZM7.21396 2.60473C7.21181 2.43472 7.24383 2.26602 7.30812 2.10863C7.37242 1.95123 7.46767 1.80836 7.58824 1.68849C7.70877 1.56855 7.85215 1.47403 8.00989 1.41054C8.16763 1.34705 8.33652 1.31589 8.50653 1.31889H14.3618C14.5318 1.31589 14.7007 1.34705 14.8585 1.41054C15.0162 1.47403 15.1596 1.56855 15.2801 1.68849C15.4007 1.80835 15.4959 1.95123 15.5602 2.10862C15.6245 2.26602 15.6565 2.43473 15.6543 2.60473V3.42898H7.21396V2.60473ZM2.51915 4.74779H20.3493C21.0049 4.74779 21.5363 5.2792 21.5363 5.93471C21.5363 6.59023 21.0049 7.12164 20.3493 7.12164H2.51908C1.86357 7.12164 1.33215 6.59023 1.33215 5.93471C1.33215 5.2792 1.86363 4.74779 2.51915 4.74779Z" fill="black"/>
<path d="M11.5 10C11.2239 10 11 10.2999 11 10.6699V23.3301C11 23.6999 11.2239 24 11.5 24C11.7762 24 12 23.6999 12 23.3301V10.6699C12 10.2999 11.7762 10 11.5 10Z" fill="black"/>
</svg>
